<?xml version="1.0" encoding="UTF-8" standalone="no"?>
<!-- Created with Inkscape (http://www.inkscape.org/) -->

<svg
   xmlns:dc="http://purl.org/dc/elements/1.1/"
   xmlns:cc="http://creativecommons.org/ns#"
   xmlns:rdf="http://www.w3.org/1999/02/22-rdf-syntax-ns#"
   xmlns:svg="http://www.w3.org/2000/svg"
   xmlns="http://www.w3.org/2000/svg"
   xmlns:sodipodi="http://sodipodi.sourceforge.net/DTD/sodipodi-0.dtd"
   xmlns:inkscape="http://www.inkscape.org/namespaces/inkscape"
   width="900mm"
   height="1200mm"
   viewBox="0 0 900 1200"
   version="1.1"
   id="svg8"
   inkscape:version="0.92.4 (5da689c313, 2019-01-14)"
   sodipodi:docname="drawing.svg">
  <defs
     id="defs2" />
  <sodipodi:namedview
     id="base"
     pagecolor="#ffffff"
     bordercolor="#666666"
     borderopacity="1.0"
     inkscape:pageopacity="0.0"
     inkscape:pageshadow="2"
     inkscape:zoom="0.12374369"
     inkscape:cx="1892.3259"
     inkscape:cy="1426.8549"
     inkscape:document-units="mm"
     inkscape:current-layer="layer1"
     showgrid="false"
     fit-margin-top="0"
     fit-margin-left="0"
     fit-margin-right="0"
     fit-margin-bottom="0"
     inkscape:window-width="1920"
     inkscape:window-height="1057"
     inkscape:window-x="-8"
     inkscape:window-y="-8"
     inkscape:window-maximized="1" />
  <metadata
     id="metadata5">
    <rdf:RDF>
      <cc:Work
         rdf:about="">
        <dc:format>image/svg+xml</dc:format>
        <dc:type
           rdf:resource="http://purl.org/dc/dcmitype/StillImage" />
        <dc:title></dc:title>
      </cc:Work>
    </rdf:RDF>
  </metadata>
  <g
     inkscape:label="Layer 1"
     inkscape:groupmode="layer"
     id="layer1"
     transform="translate(0,903)">
    <rect
       style="opacity:1;fill:#782d00;fill-opacity:1;fill-rule:nonzero;stroke:none;stroke-width:231.93045044;stroke-linecap:square;stroke-linejoin:round;stroke-miterlimit:4;stroke-dasharray:none;stroke-dashoffset:21.31999969;stroke-opacity:1;paint-order:stroke fill markers"
       id="rect815"
       width="900"
       height="1200"
       x="0"
       y="-903" />
    <rect
       y="-903"
       x="0"
       height="1200"
       width="900"
       id="rect843"
       style="opacity:1;fill:#ffffff;fill-opacity:1;fill-rule:nonzero;stroke:none;stroke-width:231.93045044;stroke-linecap:square;stroke-linejoin:round;stroke-miterlimit:4;stroke-dasharray:none;stroke-dashoffset:21.31999969;stroke-opacity:1;paint-order:stroke fill markers"
       rx="120"
       ry="120" />
    <rect
       y="-873"
       x="30"
       height="1140"
       width="840"
       id="rect845"
       style="opacity:1;fill:#782d00;fill-opacity:1;fill-rule:nonzero;stroke:none;stroke-width:218.3926239;stroke-linecap:square;stroke-linejoin:round;stroke-miterlimit:4;stroke-dasharray:none;stroke-dashoffset:21.31999969;stroke-opacity:1;paint-order:stroke fill markers"
       rx="90"
       ry="90" />
    <circle
       r="300"
       cy="-483"
       cx="450"
       id="circle856"
       style="opacity:1;fill:#ffd70a;fill-opacity:1;fill-rule:nonzero;stroke:none;stroke-width:0.32176268;stroke-linecap:butt;stroke-linejoin:miter;stroke-miterlimit:4;stroke-dasharray:none;stroke-opacity:1;paint-order:stroke fill markers" />
    <path
       inkscape:connector-curvature="0"
       id="path858"
       style="fill:#000000;fill-opacity:1;fill-rule:nonzero;stroke:none;stroke-width:57.18100357"
       d="m 199.55999,-539.68697 c 2.6909,56.54528 16.2979,116.12288 44.66124,165.97947 26.82171,46.88415 62.39217,91.71001 104.70941,126.35773 8.05654,5.42941 18.64356,14.29475 27.16374,18.86843 l 18.12806,7.55256 9.0292,3.77625 c 19.386,6.58016 41.63154,9.4326 62.04688,9.4326 7.55403,0 15.78893,-1.29657 23.33324,-1.88004 4.0526,-0.81036 18.41338,-3.25765 21.32961,-5.65633 3.25831,-1.88 19.90151,-10.92361 21.33127,-13.20882 7.71611,-6.23979 23.61855,-19.84086 29.1074,-28.30265 l 1.94522,-5.65629 -2.39912,-1.65313 0.48627,-0.16209 -100.93398,-65.98111 -5.77087,1.88004 -17.44241,26.35776 c -6.92181,9.54605 -21.32961,15.0889 -32.99623,15.0889 l -11.67148,-3.77628 c -4.57134,-2.85245 -9.43444,-9.2057 -13.55188,-13.20886 l -116.3744,-220.63984 c -2.05869,-4.16523 -3.89048,-14.69991 -2.57744,-22.64143 l 2.57744,-7.55255 c 3.37178,-6.11012 11.44456,-13.25749 17.44239,-16.98028 l 13.55189,-1.88003 h 25.27686 l 5.77089,-3.77627 1.94525,-5.65632 -7.71614,-113.20723 -9.72623,-7.48771 c -30.36531,3.43592 -75.25674,31.16156 -85.37848,60.31992 -3.5987,8.23326 -21.2162,55.46101 -19.3876,62.26478 l -3.8905,41.50986" />
    <path
       inkscape:connector-curvature="0"
       id="path860"
       style="fill:#000000;fill-opacity:1;fill-rule:nonzero;stroke:none;stroke-width:57.18100357"
       d="m 352.8195,-694.34732 c -0.48631,2.35003 -5.83574,25.44367 -5.83574,26.35775 v 26.4161 c 0,6.51528 8.46182,51.28603 13.61672,52.82896 l -15.56197,13.20886 -5.83573,-3.77629 -9.6614,-122.58308 5.83575,-3.82492 17.44237,11.37748" />
    <path
       inkscape:connector-curvature="0"
       id="path862"
       style="fill:#000000;fill-opacity:1;fill-rule:nonzero;stroke:none;stroke-width:57.18100357"
       d="m 573.96001,-277.5389 -1.94526,-20.75492 c -14.41104,-5.65633 -28.65025,-12.28506 -42.66085,-18.86681 -6.12756,-1.88 -23.33327,-14.92681 -27.16378,-18.81168 -4.00396,-4.18145 -10.00179,-13.88954 -13.55188,-18.86681 h -5.83575 l -13.61672,7.55257 v 5.60769 l 104.76614,64.1497" />
    <path
       inkscape:connector-curvature="0"
       id="path864"
       style="fill:#000000;fill-opacity:1;fill-rule:nonzero;stroke:none;stroke-width:57.24650192"
       d="m 576.44689,-422.63864 c -3.32657,21.86797 -17.74621,50.72022 -43.85115,50.72022 h -15.10768 l -9.03865,-3.37529 c -20.83756,-7.83783 -33.14598,-24.6153 -33.14598,-47.34169 v -111.516 c 0.0584,-6.58832 3.26167,-21.63918 6.75059,-27.07859 4.57609,-7.09136 26.96337,-23.64326 35.43566,-23.64326 18.20383,0 40.13026,7.49703 50.54822,23.64326 2.74241,4.30025 7.38344,21.58237 8.42198,27.07859 v 111.516" />
    <path
       inkscape:connector-curvature="0"
       id="path866"
       style="fill:#ffd70a;fill-opacity:1;fill-rule:nonzero;stroke:none;stroke-width:57.24650192"
       d="m 546.10662,-422.63864 -1.72012,10.12588 c -2.23935,3.37527 -10.98591,10.19076 -15.10762,10.19076 h -8.47072 c -0.48682,0 -7.49704,-3.0345 -8.42197,-3.37528 -2.96961,-2.80734 -8.42201,-13.16041 -8.42201,-16.9446 V -534.1579 c 2.23937,-8.69786 8.3084,-17.05982 16.83103,-20.26634 h 8.47067 c 5.38747,2.40164 11.50519,7.09135 15.10768,11.79728 l 1.72008,8.47068 v 111.51602" />
    <g
       transform="matrix(1.2,0,0,1.2,-125.04001,-368.63992)"
       id="g870"
       style="font-style:normal;font-variant:normal;font-weight:bold;font-stretch:normal;font-size:263.32843018px;line-height:0;font-family:'DIN 1451 Engschrift';-inkscape-font-specification:'DIN 1451 Engschrift Bold';letter-spacing:0px;word-spacing:0px;fill:#000000;fill-opacity:1;stroke:none;stroke-width:1.37150216"
       aria-label="S0S">
      <path
         inkscape:connector-curvature="0"
         id="path868"
         style="fill:#000000;fill-opacity:1;stroke:none;stroke-width:1.37150216"
         d="m 421.47953,-46.592494 q 0,5.003241 0.26332,7.636525 0.52666,2.369959 3.94993,7.636529 3.6866,5.00324 13.16642,5.00324 5.26657,0 9.74315,-2.10663 4.47659,-2.36996 6.58321,-5.79323 2.10663,-3.6866 2.10663,-7.373193 0.26333,-3.949927 0.26333,-5.266569 v -12.376436 q 0,-5.266569 -0.52666,-7.899853 -0.26333,-2.633284 -3.15994,-5.529897 -2.63328,-3.159941 -7.89985,-5.529897 -5.00324,-2.633284 -17.90633,-7.373196 -12.63977,-4.739912 -21.32961,-14.746389 -8.68983,-10.26981 -8.68983,-27.91282 v -7.89985 q 0,-17.90633 11.84977,-30.80943 12.11311,-13.16642 30.01945,-13.16642 18.16966,0 30.28276,12.90309 12.37644,12.63977 12.37644,31.07276 v 7.89985 h -25.0162 v -7.89985 q 0,-3.6866 -0.52666,-6.31988 -0.52665,-2.63329 -4.21325,-7.63653 -3.6866,-5.00324 -12.37644,-5.00324 -7.63652,0 -12.63976,5.5299 -4.73991,5.26657 -4.73991,13.42975 v 7.89985 q 0,5.00324 0.26332,7.3732 0.52666,2.10663 2.89662,5.00324 2.36995,2.89661 6.84654,5.00324 4.47658,2.10663 17.11634,6.84654 12.9031,4.476582 22.64625,15.009719 9.74315,10.269809 9.74315,28.176142 v 14.219735 q 0,8.689834 -1.8433,15.273054 -1.57997,6.58321 -10.53314,18.43299 Q 461.24212,-1.3 439.38586,-1.3 416.73961,-1.3 406.4698,-16.0464 396.2,-31.05612 396.2,-46.592494 v -6.319882 h 25.27953 z" />
    </g>
    <g
       transform="matrix(1.2,0,0,1.2,124.31999,-368.63992)"
       aria-label="S0S"
       style="font-style:normal;font-variant:normal;font-weight:bold;font-stretch:normal;font-size:263.32843018px;line-height:0;font-family:'DIN 1451 Engschrift';-inkscape-font-specification:'DIN 1451 Engschrift Bold';letter-spacing:0px;word-spacing:0px;fill:#000000;fill-opacity:1;stroke:none;stroke-width:1.37150216"
       id="g874">
      <path
         d="m 421.47953,-46.592494 q 0,5.003241 0.26332,7.636525 0.52666,2.369959 3.94993,7.636529 3.6866,5.00324 13.16642,5.00324 5.26657,0 9.74315,-2.10663 4.47659,-2.36996 6.58321,-5.79323 2.10663,-3.6866 2.10663,-7.373193 0.26333,-3.949927 0.26333,-5.266569 v -12.376436 q 0,-5.266569 -0.52666,-7.899853 -0.26333,-2.633284 -3.15994,-5.529897 -2.63328,-3.159941 -7.89985,-5.529897 -5.00324,-2.633284 -17.90633,-7.373196 -12.63977,-4.739912 -21.32961,-14.746389 -8.68983,-10.26981 -8.68983,-27.91282 v -7.89985 q 0,-17.90633 11.84977,-30.80943 12.11311,-13.16642 30.01945,-13.16642 18.16966,0 30.28276,12.90309 12.37644,12.63977 12.37644,31.07276 v 7.89985 h -25.0162 v -7.89985 q 0,-3.6866 -0.52666,-6.31988 -0.52665,-2.63329 -4.21325,-7.63653 -3.6866,-5.00324 -12.37644,-5.00324 -7.63652,0 -12.63976,5.5299 -4.73991,5.26657 -4.73991,13.42975 v 7.89985 q 0,5.00324 0.26332,7.3732 0.52666,2.10663 2.89662,5.00324 2.36995,2.89661 6.84654,5.00324 4.47658,2.10663 17.11634,6.84654 12.9031,4.476582 22.64625,15.009719 9.74315,10.269809 9.74315,28.176142 v 14.219735 q 0,8.689834 -1.8433,15.273054 -1.57997,6.58321 -10.53314,18.43299 Q 461.24212,-1.3 439.38586,-1.3 416.73961,-1.3 406.4698,-16.0464 396.2,-31.05612 396.2,-46.592494 v -6.319882 h 25.27953 z"
         style="fill:#000000;fill-opacity:1;stroke:none;stroke-width:1.37150216"
         id="path872"
         inkscape:connector-curvature="0" />
    </g>
    <g
       aria-label="500m"
       style="font-style:normal;font-variant:normal;font-weight:bold;font-stretch:normal;font-size:290.2024231px;line-height:0;font-family:'DIN 1451 Mittelschrift';-inkscape-font-specification:'DIN 1451 Mittelschrift Bold';letter-spacing:0px;word-spacing:0px;fill:#d30000;fill-opacity:1;stroke:none;stroke-width:1.51147091"
       id="text896">
      <path
         d="M 597,145.2996 V -2.986119 h 30.26896 v 15.85715 h 0.57932 q 14.33793,-17.57143 39.10344,-17.57143 15.78621,0 25.05517,5.57142 9.26897,5.57144 17.37931,13.71429 17.8138,-19.28571 47.50345,-19.28571 17.52414,0 33.74484,13.14285 Q 807,21.585311 807,46.728171 V 145.2996 H 776.73104 V 57.013881 q 0,-15 -8.54483,-23.42857 -8.54483,-8.42857 -21.14482,-8.42857 -13.03449,0 -21.57932,8.42857 -8.4,8.42857 -8.4,23.42857 V 145.2996 H 686.93793 V 57.013881 q 0,-15 -8.54482,-23.42857 -8.54484,-8.42857 -21.14483,-8.42857 -13.03449,0 -21.57931,8.42857 -8.40001,8.42857 -8.40001,23.42857 V 145.2996 Z"
         style="font-style:normal;font-variant:normal;font-weight:bold;font-stretch:normal;font-family:'DIN 1451 Mittelschrift';-inkscape-font-specification:'DIN 1451 Mittelschrift Bold';fill:#ffffff;fill-opacity:1;stroke:none;stroke-width:1.53428257"
         id="path904"
         inkscape:connector-curvature="0" />
      <g
         aria-label="500"
         style="font-style:normal;font-variant:normal;font-weight:bold;font-stretch:normal;font-size:290.2024231px;line-height:0;font-family:'DIN 1451 Mittelschrift';-inkscape-font-specification:'DIN 1451 Mittelschrift Bold';letter-spacing:21.26191711px;word-spacing:0px;fill:#000000;fill-opacity:1;stroke:none;stroke-width:2.28454447"
         id="text909">
        <path
           d="M 96.825911,50.502031 V -61.157886 H 206.78542 v 29.615387 h -82.04453 v 46.61943 q 14.17004,-11.33603 33.0162,-11.33603 11.76113,0 21.39676,4.53441 9.77732,4.53441 15.44534,10.62753 8.50202,9.21053 12.32793,20.12146 3.96761,10.76923 3.96761,36.417 0,20.829959 -3.1174,31.032389 -2.97571,10.06073 -9.63563,18.56275 -6.37652,8.07692 -17.85425,15.02024 Q 168.80972,147 153.36437,147 133.38462,147 114.82186,134.67207 96.259109,122.34413 93,93.43725 h 29.61539 q 5.24291,24.08907 29.61538,24.08907 21.68016,0 25.36437,-14.87854 3.68421,-14.87854 3.68421,-29.473689 0,-17.14574 -5.80971,-28.48178 -5.80972,-11.33603 -24.08907,-11.33603 -17.14575,0 -26.63968,17.14575 z"
           style="font-style:normal;font-variant:normal;font-weight:bold;font-stretch:normal;font-family:'DIN 1451 Mittelschrift';-inkscape-font-specification:'DIN 1451 Mittelschrift Bold';letter-spacing:21.26191711px;fill:#ffffff;stroke:none;stroke-width:2.28454447"
           id="path922"
           inkscape:connector-curvature="0" />
        <path
           d="M 341.68906,85.92713 V -1.785419 q 0,-14.87854 -8.07692,-23.23886 -7.93522,-8.36033 -20.97166,-8.36033 -13.17814,0 -21.11336,8.36033 -7.93522,8.36032 -7.93522,23.23886 V 85.92713 q 0,15.02024 7.93522,23.38057 7.93522,8.21862 21.11336,8.21862 13.03644,0 20.97166,-8.21862 8.07692,-8.36033 8.07692,-23.38057 z m -87.71254,1.7004 V -3.485819 q 0,-28.48178 17.85425,-43.92713 17.85425,-15.587042 40.80971,-15.587042 22.81377,0 40.66802,15.587042 17.99595,15.44535 17.99595,43.92713 V 87.62753 q 0,28.48179 -17.99595,43.92713 Q 335.45425,147 312.64048,147 289.68502,147 271.83077,131.55466 253.97652,116.10932 253.97652,87.62753 Z"
           style="font-style:normal;font-variant:normal;font-weight:bold;font-stretch:normal;font-family:'DIN 1451 Mittelschrift';-inkscape-font-specification:'DIN 1451 Mittelschrift Bold';letter-spacing:21.26191711px;fill:#ffffff;stroke:none;stroke-width:2.28454447"
           id="path924"
           inkscape:connector-curvature="0" />
        <path
           d="M 502.38418,85.92713 V -1.785419 q 0,-14.87854 -8.07692,-23.23886 -7.93523,-8.36033 -20.97166,-8.36033 -13.17814,0 -21.11336,8.36033 -7.93523,8.36032 -7.93523,23.23886 V 85.92713 q 0,15.02024 7.93523,23.38057 7.93522,8.21862 21.11336,8.21862 13.03643,0 20.97166,-8.21862 8.07692,-8.36033 8.07692,-23.38057 z m -87.71255,1.7004 V -3.485819 q 0,-28.48178 17.85425,-43.92713 17.85425,-15.587042 40.80972,-15.587042 22.81376,0 40.66801,15.587042 17.99595,15.44535 17.99595,43.92713 V 87.62753 q 0,28.48179 -17.99595,43.92713 Q 496.14936,147 473.3356,147 450.38013,147 432.52588,131.55466 414.67163,116.10932 414.67163,87.62753 Z"
           style="font-style:normal;font-variant:normal;font-weight:bold;font-stretch:normal;font-family:'DIN 1451 Mittelschrift';-inkscape-font-specification:'DIN 1451 Mittelschrift Bold';letter-spacing:21.26191711px;fill:#ffffff;stroke:none;stroke-width:2.28454447"
           id="path926"
           inkscape:connector-curvature="0" />
      </g>
    </g>
  </g>
</svg>
